<mxfile host="drawio-plugin" modified="2021-03-14T02:38:05.948Z" agent="5.0 (Macintosh; Intel Mac OS X 10_16_0) AppleWebKit/537.36 (KHTML, like Gecko) Chrome/84.0.4147.105 Safari/537.36" etag="AlFGCvLt9Otox5ahO9kw" version="13.7.9" type="embed"><diagram id="vnLsRIoiphlfDLrq9lnL" name="第 1 页"><mxGraphModel dx="1562" dy="811" grid="1" gridSize="10" guides="1" tooltips="1" connect="1" arrows="1" fold="1" page="1" pageScale="1" pageWidth="827" pageHeight="1169" math="0" shadow="0"><root><mxCell id="0"/><mxCell id="1" parent="0"/><mxCell id="6X95Nb20T5aTsPw4vLSt-8" style="edgeStyle=orthogonalEdgeStyle;rounded=0;orthogonalLoop=1;jettySize=auto;html=1;entryX=0.5;entryY=0;entryDx=0;entryDy=0;" parent="1" source="6X95Nb20T5aTsPw4vLSt-1" target="6X95Nb20T5aTsPw4vLSt-6" edge="1"><mxGeometry relative="1" as="geometry"><mxPoint x="590" y="310" as="targetPoint"/></mxGeometry></mxCell><mxCell id="6X95Nb20T5aTsPw4vLSt-1" value="UserService.class&lt;br&gt;UserManage.class" style="whiteSpace=wrap;html=1;aspect=fixed;fillColor=#d5e8d4;strokeColor=#82b366;" parent="1" vertex="1"><mxGeometry x="510" y="130" width="160" height="160" as="geometry"/></mxCell><mxCell id="6X95Nb20T5aTsPw4vLSt-3" style="edgeStyle=orthogonalEdgeStyle;rounded=0;orthogonalLoop=1;jettySize=auto;html=1;entryX=0;entryY=0.5;entryDx=0;entryDy=0;" parent="1" source="6X95Nb20T5aTsPw4vLSt-2" target="6X95Nb20T5aTsPw4vLSt-1" edge="1"><mxGeometry relative="1" as="geometry"><mxPoint x="450" y="210" as="targetPoint"/><Array as="points"/></mxGeometry></mxCell><mxCell id="6X95Nb20T5aTsPw4vLSt-2" value="UserService.java&lt;br&gt;UserManage.java" style="whiteSpace=wrap;html=1;aspect=fixed;fillColor=#f8cecc;strokeColor=#b85450;" parent="1" vertex="1"><mxGeometry x="170" y="130" width="160" height="160" as="geometry"/></mxCell><mxCell id="6X95Nb20T5aTsPw4vLSt-4" value="&lt;b&gt;java c&amp;nbsp; 编译&lt;/b&gt;" style="text;html=1;align=center;verticalAlign=middle;resizable=0;points=[];autosize=1;" parent="1" vertex="1"><mxGeometry x="360" y="180" width="80" height="20" as="geometry"/></mxCell><mxCell id="6X95Nb20T5aTsPw4vLSt-5" value="JVM" style="whiteSpace=wrap;html=1;aspect=fixed;fillColor=#ffe6cc;strokeColor=#d79b00;" parent="1" vertex="1"><mxGeometry x="445" y="500" width="335" height="335" as="geometry"/></mxCell><mxCell id="6X95Nb20T5aTsPw4vLSt-12" value="" style="edgeStyle=orthogonalEdgeStyle;rounded=0;orthogonalLoop=1;jettySize=auto;html=1;" parent="1" source="6X95Nb20T5aTsPw4vLSt-6" target="6X95Nb20T5aTsPw4vLSt-11" edge="1"><mxGeometry relative="1" as="geometry"/></mxCell><mxCell id="6X95Nb20T5aTsPw4vLSt-6" value="类加载器" style="rounded=0;whiteSpace=wrap;html=1;fillColor=#008a00;strokeColor=#005700;fontColor=#ffffff;" parent="1" vertex="1"><mxGeometry x="530" y="450" width="120" height="60" as="geometry"/></mxCell><mxCell id="6X95Nb20T5aTsPw4vLSt-9" value="类加载" style="text;html=1;align=center;verticalAlign=middle;resizable=0;points=[];autosize=1;" parent="1" vertex="1"><mxGeometry x="585" y="350" width="50" height="20" as="geometry"/></mxCell><mxCell id="6X95Nb20T5aTsPw4vLSt-11" value="类" style="rounded=0;whiteSpace=wrap;html=1;fillColor=#d80073;strokeColor=#A50040;fontColor=#ffffff;" parent="1" vertex="1"><mxGeometry x="610" y="560" width="120" height="60" as="geometry"/></mxCell><mxCell id="6X95Nb20T5aTsPw4vLSt-13" value="执行代码" style="rounded=0;whiteSpace=wrap;html=1;fillColor=#ffcd28;strokeColor=#d79b00;gradientColor=#ffa500;" parent="1" vertex="1"><mxGeometry x="610" y="700" width="120" height="60" as="geometry"/></mxCell><mxCell id="6X95Nb20T5aTsPw4vLSt-15" value="" style="endArrow=classic;html=1;entryX=0.5;entryY=0;entryDx=0;entryDy=0;exitX=0.5;exitY=1;exitDx=0;exitDy=0;" parent="1" source="6X95Nb20T5aTsPw4vLSt-11" target="6X95Nb20T5aTsPw4vLSt-13" edge="1"><mxGeometry width="50" height="50" relative="1" as="geometry"><mxPoint x="280" y="500" as="sourcePoint"/><mxPoint x="330" y="450" as="targetPoint"/></mxGeometry></mxCell><mxCell id="6X95Nb20T5aTsPw4vLSt-16" value="1.我们创建的类通过编译成class文件&lt;br&gt;&amp;nbsp; &amp;nbsp; &amp;nbsp; &amp;nbsp; &amp;nbsp; &amp;nbsp; &amp;nbsp;2.将编译之后的class文件放在jar包或者war中&lt;br&gt;&amp;nbsp; &amp;nbsp; &amp;nbsp; &amp;nbsp; &amp;nbsp;3.执行java -jar 时，会启动一个JVM'的进程&lt;br&gt;&amp;nbsp; &amp;nbsp; &amp;nbsp; &amp;nbsp; &amp;nbsp; &amp;nbsp; &amp;nbsp; &amp;nbsp; &amp;nbsp; &amp;nbsp; &amp;nbsp; &amp;nbsp; &amp;nbsp; &amp;nbsp; 4.JVM会根据不同的类加载器去家在class 文件，到JVM&lt;br&gt;&lt;blockquote style=&quot;margin: 0 0 0 40px ; border: none ; padding: 0px&quot;&gt;5.执行类里面的代码&lt;/blockquote&gt;" style="text;html=1;align=center;verticalAlign=middle;resizable=0;points=[];autosize=1;" parent="1" vertex="1"><mxGeometry x="45" y="350" width="400" height="80" as="geometry"/></mxCell><mxCell id="6X95Nb20T5aTsPw4vLSt-18" value="&lt;font style=&quot;font-size: 24px&quot;&gt;&amp;nbsp; &amp;nbsp; &amp;nbsp; &amp;nbsp; &amp;nbsp; &amp;nbsp; &amp;nbsp; &amp;nbsp; &amp;nbsp; &amp;nbsp; &amp;nbsp; &amp;nbsp; &amp;nbsp; &amp;nbsp; &amp;nbsp; &amp;nbsp; &amp;nbsp; &amp;nbsp; &amp;nbsp; &amp;nbsp; &amp;nbsp; &amp;nbsp; &amp;nbsp; &amp;nbsp; &amp;nbsp; &amp;nbsp; &amp;nbsp;我们编写的java文件是怎么被执行过程&lt;/font&gt;" style="text;html=1;align=center;verticalAlign=middle;resizable=0;points=[];autosize=1;" parent="1" vertex="1"><mxGeometry x="-80" y="50" width="770" height="20" as="geometry"/></mxCell></root></mxGraphModel></diagram></mxfile>